# xmcd
#
# Track frame offsets:
#	150
#	22950
#	38166
#	63413
#	103439
#	117502
#	133041
#	147848
#	161583
#	179158
#	195565
#	222543
#
# Disc length: 3234 seconds
#
# Revision: 1
# Processed by: cddbd v1.5.2PL0 Copyright (c) Steve Scherf et al.
# Submitted via: audiograbber 1.83.01
#
DISCID=bb0ca00c
DTITLE=Piùbestialcheblues - Doppio Live CD 2
DYEAR=2003
DGENRE=Blues
TTITLE0=It's Too Late
TTITLE1=All Shook Up
TTITLE2=Bring it on Home to Me
TTITLE3=Stormy Monday
TTITLE4=Girl from the North Country
TTITLE5=Cream
TTITLE6=Can't Judge a Book by its Cover
TTITLE7=Shake a Tailfeather
TTITLE8=Rock'n'Roll Music
TTITLE9=Honky Tonk Women
TTITLE10=Watch the Moon Come Down
TTITLE11=The Last Kiss
EXTD=
EXTT0=
EXTT1=
EXTT2=
EXTT3=
EXTT4=
EXTT5=
EXTT6=
EXTT7=
EXTT8=
EXTT9=
EXTT10=
EXTT11=
PLAYORDER=
